<svg width="20" height="20" viewBox="0 0 20 20" fill="none" xmlns="http://www.w3.org/2000/svg">
<path d="M9.99999 18.3333C8.8611 18.3333 7.78471 18.1146 6.77082 17.6771C5.75693 17.2396 4.87152 16.6424 4.11457 15.8854C3.35763 15.1285 2.76041 14.243 2.32291 13.2292C1.88541 12.2153 1.66666 11.1389 1.66666 9.99999C1.66666 8.84721 1.88541 7.76735 2.32291 6.76041C2.76041 5.75346 3.35763 4.87152 4.11457 4.11457C4.87152 3.35763 5.75693 2.76041 6.77082 2.32291C7.78471 1.88541 8.8611 1.66666 9.99999 1.66666C11.1528 1.66666 12.2326 1.88541 13.2396 2.32291C14.2465 2.76041 15.1285 3.35763 15.8854 4.11457C16.6424 4.87152 17.2396 5.75346 17.6771 6.76041C18.1146 7.76735 18.3333 8.84721 18.3333 9.99999C18.3333 11.1389 18.1146 12.2153 17.6771 13.2292C17.2396 14.243 16.6424 15.1285 15.8854 15.8854C15.1285 16.6424 14.2465 17.2396 13.2396 17.6771C12.2326 18.1146 11.1528 18.3333 9.99999 18.3333ZM9.99999 16.625C10.3611 16.125 10.6736 15.6042 10.9375 15.0625C11.2014 14.5208 11.4167 13.9444 11.5833 13.3333H8.41666C8.58332 13.9444 8.7986 14.5208 9.06249 15.0625C9.32638 15.6042 9.63888 16.125 9.99999 16.625ZM7.83332 16.2917C7.58332 15.8333 7.36457 15.3576 7.17707 14.8646C6.98957 14.3715 6.83332 13.8611 6.70832 13.3333H4.24999C4.65277 14.0278 5.15624 14.6319 5.76041 15.1458C6.36457 15.6597 7.05555 16.0417 7.83332 16.2917ZM12.1667 16.2917C12.9444 16.0417 13.6354 15.6597 14.2396 15.1458C14.8437 14.6319 15.3472 14.0278 15.75 13.3333H13.2917C13.1667 13.8611 13.0104 14.3715 12.8229 14.8646C12.6354 15.3576 12.4167 15.8333 12.1667 16.2917ZM3.54166 11.6667H6.37499C6.33332 11.3889 6.30207 11.1146 6.28124 10.8437C6.26041 10.5729 6.24999 10.2917 6.24999 9.99999C6.24999 9.70832 6.26041 9.42707 6.28124 9.15624C6.30207 8.88541 6.33332 8.6111 6.37499 8.33332H3.54166C3.47221 8.6111 3.42013 8.88541 3.38541 9.15624C3.35068 9.42707 3.33332 9.70832 3.33332 9.99999C3.33332 10.2917 3.35068 10.5729 3.38541 10.8437C3.42013 11.1146 3.47221 11.3889 3.54166 11.6667ZM8.04166 11.6667H11.9583C12 11.3889 12.0312 11.1146 12.0521 10.8437C12.0729 10.5729 12.0833 10.2917 12.0833 9.99999C12.0833 9.70832 12.0729 9.42707 12.0521 9.15624C12.0312 8.88541 12 8.6111 11.9583 8.33332H8.04166C7.99999 8.6111 7.96874 8.88541 7.94791 9.15624C7.92707 9.42707 7.91666 9.70832 7.91666 9.99999C7.91666 10.2917 7.92707 10.5729 7.94791 10.8437C7.96874 11.1146 7.99999 11.3889 8.04166 11.6667ZM13.625 11.6667H16.4583C16.5278 11.3889 16.5799 11.1146 16.6146 10.8437C16.6493 10.5729 16.6667 10.2917 16.6667 9.99999C16.6667 9.70832 16.6493 9.42707 16.6146 9.15624C16.5799 8.88541 16.5278 8.6111 16.4583 8.33332H13.625C13.6667 8.6111 13.6979 8.88541 13.7187 9.15624C13.7396 9.42707 13.75 9.70832 13.75 9.99999C13.75 10.2917 13.7396 10.5729 13.7187 10.8437C13.6979 11.1146 13.6667 11.3889 13.625 11.6667ZM13.2917 6.66666H15.75C15.3472 5.97221 14.8437 5.36805 14.2396 4.85416C13.6354 4.34027 12.9444 3.95832 12.1667 3.70832C12.4167 4.16666 12.6354 4.64235 12.8229 5.13541C13.0104 5.62846 13.1667 6.13888 13.2917 6.66666ZM8.41666 6.66666H11.5833C11.4167 6.05555 11.2014 5.47916 10.9375 4.93749C10.6736 4.39582 10.3611 3.87499 9.99999 3.37499C9.63888 3.87499 9.32638 4.39582 9.06249 4.93749C8.7986 5.47916 8.58332 6.05555 8.41666 6.66666ZM4.24999 6.66666H6.70832C6.83332 6.13888 6.98957 5.62846 7.17707 5.13541C7.36457 4.64235 7.58332 4.16666 7.83332 3.70832C7.05555 3.95832 6.36457 4.34027 5.76041 4.85416C5.15624 5.36805 4.65277 5.97221 4.24999 6.66666Z" fill="#E50913"/>
</svg>
