<svg width="20" height="20" viewBox="0 0 20 20" fill="none" xmlns="http://www.w3.org/2000/svg">
<path d="M10 9.99999C10.4583 9.99999 10.8507 9.8368 11.1771 9.51041C11.5035 9.18402 11.6667 8.79166 11.6667 8.33332C11.6667 7.87499 11.5035 7.48263 11.1771 7.15624C10.8507 6.82985 10.4583 6.66666 10 6.66666C9.54168 6.66666 9.14932 6.82985 8.82293 7.15624C8.49654 7.48263 8.33334 7.87499 8.33334 8.33332C8.33334 8.79166 8.49654 9.18402 8.82293 9.51041C9.14932 9.8368 9.54168 9.99999 10 9.99999ZM10 16.125C11.6945 14.5694 12.9514 13.1562 13.7708 11.8854C14.5903 10.6146 15 9.4861 15 8.49999C15 6.9861 14.5174 5.74652 13.5521 4.78124C12.5868 3.81596 11.4028 3.33332 10 3.33332C8.59723 3.33332 7.4132 3.81596 6.44793 4.78124C5.48265 5.74652 5.00001 6.9861 5.00001 8.49999C5.00001 9.4861 5.40973 10.6146 6.22918 11.8854C7.04862 13.1562 8.30557 14.5694 10 16.125ZM10 18.3333C7.7639 16.4305 6.09376 14.6632 4.98959 13.0312C3.88543 11.3993 3.33334 9.88888 3.33334 8.49999C3.33334 6.41666 4.00348 4.75693 5.34376 3.52082C6.68404 2.28471 8.23612 1.66666 10 1.66666C11.7639 1.66666 13.316 2.28471 14.6563 3.52082C15.9965 4.75693 16.6667 6.41666 16.6667 8.49999C16.6667 9.88888 16.1146 11.3993 15.0104 13.0312C13.9063 14.6632 12.2361 16.4305 10 18.3333Z" fill="#E50913"/>
</svg>
